<?xml version="1.0" encoding="utf-8"?>
<!-- Generator: Adobe Illustrator 22.0.1, SVG Export Plug-In . SVG Version: 6.00 Build 0)  -->
<svg version="1.1" id="Google_x2B_" xmlns="http://www.w3.org/2000/svg" xmlns:xlink="http://www.w3.org/1999/xlink" x="0px"
	 y="0px" viewBox="0 0 128 128" style="enable-background:new 0 0 128 128;" xml:space="preserve">
<style type="text/css">
	.st0{fill:#FFFFFF;}
</style>
<g>
	<g id="google--google-">
		<g>
			<path class="st0" d="M28.2,64C27.7,52.3,38,41.4,49.8,41.3c6-0.5,11.8,1.8,16.4,5.6c-1.9,2-3.8,4.1-5.8,6
				c-4-2.4-8.8-4.3-13.5-2.6c-7.5,2.1-12.1,11-9.3,18.4c2.3,7.7,11.7,11.9,19,8.7c3.8-1.4,6.3-4.9,7.4-8.6c-4.3-0.1-8.7,0-13-0.2
				c0-2.6,0-5.2,0-7.8c7.3,0,14.5,0,21.8,0c0.4,6.3-0.5,13.1-4.6,18.2c-5.6,7.3-16.1,9.4-24.6,6.5C34.5,82.6,28,73.5,28.2,64"/>
			<path class="st0" d="M86.8,54.2h6.5c0,2.2,0,4.3,0,6.5c2.2,0,4.3,0,6.5,0v6.5c-2.2,0-4.3,0-6.5,0c0,2.2,0,4.3,0,6.5
				c-2.2,0-4.3,0-6.5,0c0-2.2,0-4.3,0-6.5c-2.2,0-4.3,0-6.5,0v-6.5c2.2,0,4.3,0,6.5,0C86.8,58.6,86.8,56.4,86.8,54.2"/>
		</g>
	</g>
</g>
</svg>
