<?xml version="1.0" encoding="utf-8"?>
<!-- Generator: Adobe Illustrator 22.0.1, SVG Export Plug-In . SVG Version: 6.00 Build 0)  -->
<svg version="1.1" id="Pinterest" xmlns="http://www.w3.org/2000/svg" xmlns:xlink="http://www.w3.org/1999/xlink" x="0px" y="0px"
	 viewBox="0 0 128 128" style="enable-background:new 0 0 128 128;" xml:space="preserve">
<style type="text/css">
	.st0{fill:#FFFFFF;}
</style>
<g>
	<path id="pinterest-pinterest" class="st0" d="M91.7,51.7c0,16.2-9,28.2-22.2,28.2c-4.4,0-8.6-2.4-10.1-5.1c0,0-2.4,9.5-2.9,11.3
		c-1.8,6.5-7,12.9-7.4,13.5c-0.3,0.4-0.9,0.3-1-0.2c-0.1-0.8-1.4-9,0.1-15.7c0.8-3.3,5.3-22.4,5.3-22.4s-1.3-2.6-1.3-6.5
		c0-6.1,3.5-10.7,7.9-10.7c3.7,0,5.6,2.8,5.6,6.2c0,3.8-2.4,9.4-3.6,14.6c-1,4.4,2.2,7.9,6.5,7.9c7.8,0,13-10,13-21.9
		c0-9-6.1-15.8-17.1-15.8c-12.5,0-20.3,9.3-20.3,19.7c0,3.6,1.1,6.1,2.7,8.1c0.8,0.9,0.9,1.3,0.6,2.3c-0.2,0.8-0.6,2.6-0.8,3.3
		c-0.3,1-1.1,1.4-2.1,1c-5.8-2.4-8.4-8.7-8.4-15.7c0-11.7,9.9-25.7,29.4-25.7C81.4,28.2,91.7,39.5,91.7,51.7z"/>
</g>
</svg>
