<?xml version="1.0" encoding="utf-8"?>
<!-- Generator: Adobe Illustrator 22.0.1, SVG Export Plug-In . SVG Version: 6.00 Build 0)  -->
<svg version="1.1" id="WhatsApp" xmlns="http://www.w3.org/2000/svg" xmlns:xlink="http://www.w3.org/1999/xlink" x="0px" y="0px"
	 viewBox="0 0 128 128" style="enable-background:new 0 0 128 128;" xml:space="preserve">
<style type="text/css">
	.st0{fill:#FFFFFF;}
</style>
<g>
	<g id="whatsapp-whatsapp">
		<path class="st0" d="M28.2,100l5.1-18.5c-3.1-5.4-4.8-11.6-4.8-17.8C28.5,44,44.5,28,64.1,28c9.5,0,18.5,3.7,25.2,10.5
			c6.7,6.7,10.4,15.7,10.4,25.2c0,19.7-16,35.7-35.7,35.7c0,0,0,0,0,0h0c-6,0-11.8-1.5-17.1-4.3L28.2,100z M48,88.6l1.1,0.6
			c4.6,2.7,9.8,4.1,15.1,4.1h0c16.3,0,29.7-13.3,29.7-29.7c0-7.9-3.1-15.4-8.7-21c-5.6-5.6-13-8.7-21-8.7
			c-16.4,0-29.7,13.3-29.7,29.7c0,5.6,1.6,11.1,4.5,15.8l0.7,1.1l-3,10.9L48,88.6z"/>
		<path class="st0" d="M82.1,72.2c-0.2-0.4-0.8-0.6-1.7-1c-0.9-0.4-5.3-2.6-6.1-2.9c-0.8-0.3-1.4-0.4-2,0.4
			c-0.6,0.9-2.3,2.9-2.8,3.5c-0.5,0.6-1,0.7-1.9,0.2S63.8,71,60.4,68c-2.7-2.4-4.4-5.3-5-6.2c-0.5-0.9-0.1-1.4,0.4-1.8
			c0.4-0.4,0.9-1,1.3-1.6c0.4-0.5,0.6-0.9,0.9-1.5c0.3-0.6,0.1-1.1-0.1-1.6c-0.2-0.4-2-4.8-2.8-6.6c-0.7-1.7-1.5-1.5-2-1.5
			c-0.5,0-1.1,0-1.7,0c-0.6,0-1.6,0.2-2.4,1.1c-0.8,0.9-3.1,3-3.1,7.4c0,4.4,3.2,8.6,3.6,9.2c0.4,0.6,6.3,9.6,15.2,13.5
			c2.1,0.9,3.8,1.5,5.1,1.9c2.1,0.7,4.1,0.6,5.6,0.4c1.7-0.3,5.3-2.2,6-4.2C82.4,74.3,82.4,72.6,82.1,72.2z"/>
	</g>
</g>
</svg>
