<?xml version="1.0" encoding="utf-8"?>
<!-- Generator: Adobe Illustrator 16.0.0, SVG Export Plug-In . SVG Version: 6.00 Build 0)  -->
<!DOCTYPE svg PUBLIC "-//W3C//DTD SVG 1.1//EN" "http://www.w3.org/Graphics/SVG/1.1/DTD/svg11.dtd">
<svg version="1.1" id="Layer_1" xmlns="http://www.w3.org/2000/svg" xmlns:xlink="http://www.w3.org/1999/xlink" x="0px" y="0px"
	 width="302px" height="299.5px" viewBox="0 0 302 299.5" enable-background="new 0 0 302 299.5" xml:space="preserve">
<g>
	<g>
		<g>
			<g>
				<path fill="#20BEE8" d="M151.163,290.91c-0.056,0-0.112,0.002-0.168,0.002c-77.556,0-140.661-63.094-140.661-140.662
					c0-77.57,63.105-140.673,140.661-140.673c0.056,0,0.112,0.002,0.168,0.002V3.074c-0.056,0-0.112-0.002-0.168-0.002
					C69.852,3.072,3.824,69.094,3.824,150.25c0,81.148,66.027,147.17,147.171,147.17c0.056,0,0.112-0.002,0.168-0.002V290.91z"/>
			</g>
		</g>
	</g>
	<g>
		<g>
			<g>
				<g>
					<g>
						<path fill="#20BEE8" d="M151.163,168.935c-8.874-0.581-15.769-8.063-15.542-17.032c0.219-8.699,7.026-15.674,15.542-16.236
							v-8.165c-12.927,0.556-23.374,11.03-23.699,24.183c-0.353,13.563,10.227,24.844,23.699,25.441V168.935z"/>
					</g>
					<path fill="#EB2627" d="M151.163,187.729c-11.694-0.14-22.897-2.205-33.276-5.942l0.01-61.244
						c10.379-3.713,21.574-5.769,33.267-5.909v-11.412c-19.866,0.194-33.267,5.258-33.267,5.258V83.359h33.267V72.693l-43.947-0.003
						l-0.008,0.596l0.008,38.46c0,0-0.022,0.004-0.042,0.01l-0.02,0.404c0,0-33.126,13.016-48.417,37.648
						c0,0,17.836,28.248,48.505,40.201l-0.034,0.605l-0.015,25.975l-0.02,23.285h10.67l0.015-22.658l0.018-22.23l0.011-0.066v-0.363
						c0,0,0.01,0,0.02,0.008l0.029-0.607c0,0,14.941,5.166,33.228,5.335V187.729z M107.208,177.264
						c-13.347-6.631-24.947-16.107-33.927-27.586c8.979-11.5,20.58-17.965,33.927-24.576V177.264z"/>
				</g>
			</g>
		</g>
	</g>
	<g>
		<g>
			<g>
				<g>
					<linearGradient id="SVGID_1_" gradientUnits="userSpaceOnUse" x1="305.6768" y1="150.2422" x2="96.5911" y2="150.2422">
						<stop  offset="0" style="stop-color:#FFFFFF"/>
						<stop  offset="1" style="stop-color:#000000"/>
					</linearGradient>
					<path fill="url(#SVGID_1_)" d="M150.995,3.066c-0.111,0-0.222,0.004-0.333,0.004v6.508c0.111,0,0.222-0.004,0.333-0.004
						c77.574,0,140.675,63.104,140.675,140.675c0,77.57-63.101,140.66-140.675,140.66c-0.111,0-0.222-0.004-0.333-0.004v6.51
						c0.111,0,0.222,0.004,0.333,0.004c81.162,0,147.181-66.021,147.181-147.17C298.176,69.091,232.157,3.066,150.995,3.066z"/>
				</g>
			</g>
		</g>
		<g>
			<g>
				<g>
					<g>
						<g>
							<linearGradient id="SVGID_2_" gradientUnits="userSpaceOnUse" x1="305.6777" y1="152.3115" x2="96.5906" y2="152.3115">
								<stop  offset="0" style="stop-color:#FFFFFF"/>
								<stop  offset="1" style="stop-color:#000000"/>
							</linearGradient>
							<path fill="url(#SVGID_2_)" d="M152.884,127.472c-0.749-0.019-1.488,0.002-2.222,0.048v8.19
								c0.669-0.064,1.345-0.103,2.034-0.086c9.202,0.23,16.489,7.893,16.254,17.1c-0.225,9.199-7.876,16.482-17.089,16.262
								c-0.405-0.01-0.802-0.052-1.199-0.09v8.206c0.332,0.021,0.665,0.042,1.001,0.05c13.706,0.326,25.113-10.514,25.449-24.229
								C177.458,139.171,166.598,127.798,152.884,127.472z"/>
						</g>
						<linearGradient id="SVGID_3_" gradientUnits="userSpaceOnUse" x1="305.6768" y1="155.3438" x2="96.5908" y2="155.3438">
							<stop  offset="0" style="stop-color:#FFFFFF"/>
							<stop  offset="1" style="stop-color:#000000"/>
						</linearGradient>
						<path fill="url(#SVGID_3_)" d="M209.798,170.923c-3.896,3.068-5.896,8.689-6.002,8.971v0.016
							c-0.476,2.121-0.619,4.566-0.214,7.371c26.935-12.693,42.442-37.398,42.442-37.398
							c-15.206-24.547-48.497-37.273-48.497-37.273l-0.02-0.877h-0.033l0.011-0.982l0.004-17.711
							c-0.407-5.961-3.213-11.257-7.455-14.975c-3.765-3.286-8.666-5.309-14.021-5.365l-25.351-0.003V83.36h25.09
							c5.598,0,10.34,4.25,11.053,9.678v14.756c-0.012,0-0.049-0.008-0.07-0.018l-0.027,0.572
							c-13.169-4.063-25.528-5.267-36.045-5.119v11.411c0.576-0.01,1.148-0.038,1.728-0.038c12.108,0.008,23.69,2.107,34.407,5.947
							l0.008,61.277c-10.725,3.826-22.314,5.939-34.425,5.926c-0.576,0-1.145-0.027-1.718-0.037v11.567
							c4.314,0.062,8.82-0.148,13.368-0.771l0.798,1.148l0.043,0.061l15.449,21.094l12.587,17.17l11.56,0.008l-11.434-16.447
							l-16.626-23.863l-0.564-0.764c0,0,12.709-2.52,16.521-5.771l0.017-0.012c5.062-5.26,5.104-13.658,5.104-13.852v-52.205
							l0.004-0.6c26.812,12.309,34.451,25.17,34.451,25.17C227.36,157.239,213.94,167.677,209.798,170.923z"/>
					</g>
				</g>
			</g>
			<linearGradient id="SVGID_4_" gradientUnits="userSpaceOnUse" x1="305.6768" y1="122.7695" x2="110.3643" y2="122.7695">
				<stop  offset="0" style="stop-color:#FFFFFF"/>
				<stop  offset="1" style="stop-color:#000000"/>
			</linearGradient>
			<polygon fill="url(#SVGID_4_)" points="195.601,123.028 195.601,123.019 195.576,122.511 			"/>
		</g>
	</g>
</g>
</svg>
