<?xml version="1.0" encoding="utf-8"?>
<!-- Generator: Adobe Illustrator 22.0.1, SVG Export Plug-In . SVG Version: 6.00 Build 0)  -->
<svg version="1.1" id="Capa_1" xmlns="http://www.w3.org/2000/svg" xmlns:xlink="http://www.w3.org/1999/xlink" x="0px" y="0px"
	 viewBox="0 0 374.6 357.6" style="enable-background:new 0 0 374.6 357.6;" xml:space="preserve">
<style type="text/css">
	.st0{opacity:0.75;fill:#FFFFFF;}
</style>
<title>logoArtboard 3</title>
<path class="st0" d="M188.7,325c-83.6,0-151.6-68-151.6-151.6c0-83.6,68-151.6,151.6-151.6s151.6,68,151.6,151.6
	C340.4,257,272.4,325,188.7,325z M188.7,28.4c-79.9,0-144.9,65-144.9,144.9c0,79.9,65,144.9,144.9,144.9
	c79.9,0,144.9-65,144.9-144.9C333.7,93.4,268.7,28.4,188.7,28.4z"/>
<path class="st0" d="M215.7,176.1c0.3-14.1-10.8-25.9-25-26.2c-14.1-0.3-25.9,10.8-26.2,25c-0.3,14.1,10.8,25.8,24.9,26.2
	C203.6,201.4,215.3,190.3,215.7,176.1C215.7,176.1,215.7,176.1,215.7,176.1z M189.6,192.6c-9.5-0.2-17-8.1-16.8-17.6
	s8.1-17,17.6-16.8s17,8.1,16.8,17.6c0,0,0,0,0,0C207,185.4,199.2,192.9,189.6,192.6C189.7,192.6,189.7,192.6,189.6,192.6
	L189.6,192.6z"/>
<path class="st0" d="M249.3,194.6c-4,3.2-6.1,8.9-6.2,9.2v0c-0.5,2.5-0.6,5.1-0.2,7.6c27.7-13.1,43.7-38.5,43.7-38.5
	c-15.7-25.3-50-38.4-50-38.4l0-0.9c0,0,0,0,0,0l0-1l0-18.3c-0.8-11.7-10.4-20.8-22.1-21l-70.9,0l0,0.6l0,39.6c0,0,0,0,0,0l0,0.4
	c0,0-34.1,13.4-49.9,38.8c0,0,18.4,29.1,50,41.4l0,0.6l0,26.8l0,24h11l0-23.4l0-22.9l0-0.1V219c0,0,0,0,0,0l0-0.6
	c0,0,23.2,8,47.5,4.7l0.8,1.2l0,0.1L219,246l13,17.7l11.9,0l-11.8-16.9l-17.1-24.6l-0.6-0.8c0,0,13.1-2.6,17-5.9l0,0
	c5.2-5.4,5.3-14.1,5.3-14.3l0-53.3v-0.5l0-0.6c27.6,12.7,35.5,25.9,35.5,25.9C267.4,180.5,253.6,191.3,249.3,194.6z M225.6,129.6
	C225.6,129.6,225.6,129.6,225.6,129.6l-0.1,0.6c-38.8-12-70.9,0.1-70.9,0.1v-25.9h59.6c5.7,0,10.6,4.3,11.4,10L225.6,129.6z
	 M108.7,172.7c9.2-11.8,21.2-18.5,35-25.3v53.7C130,194.4,118.1,184.7,108.7,172.7z M190.2,212c-12.1,0-24.1-2.1-35.5-6.2l0-63.1
	c23-8.2,48-8.2,71,0l0,63.1C214.3,209.9,202.3,212,190.2,212z"/>
<polygon class="st0" points="234.7,145.3 234.7,145.3 234.7,144.8 "/>
<path class="st0" d="M31.9,104.6l-6.4-0.7c-1.4-0.2-2.7-0.3-4-0.5l0,0.1c1.1,0.7,2.2,1.6,3.3,2.4l5.2,4.1l-0.7,1.8l-6.4-0.4
	c-1.5-0.1-2.9-0.2-4.2-0.4l0,0.1c1.2,0.7,2.3,1.5,3.4,2.3l5.2,3.8l-0.8,2.1l-10.1-8.1l0.7-1.9l6.2,0.3c1.4,0.1,2.8,0.2,4.2,0.4l0,0
	c-1.2-0.8-2.3-1.6-3.4-2.5l-4.8-3.9l0.7-1.9l12.9,0.9L31.9,104.6z"/>
<path class="st0" d="M21,142l-6.4,0.8c-1.4,0.2-2.7,0.3-4,0.4l0,0.1c1.2,0.4,2.5,1,3.7,1.6l6,2.8l-0.2,1.9l-6.4,1.1
	c-1.5,0.3-2.9,0.5-4.1,0.6l0,0.1c1.3,0.4,2.6,0.9,3.9,1.4l5.9,2.5l-0.3,2.2L7.2,152l0.3-2l6.1-1.1c1.4-0.3,2.8-0.5,4.2-0.6l0-0.1
	c-1.3-0.5-2.6-1-3.9-1.6l-5.6-2.7l0.3-2l12.7-2.1L21,142z"/>
<path class="st0" d="M18.9,181l-6.1,2.3c-1.3,0.5-2.6,1-3.8,1.3l0,0.1c1.3,0.2,2.6,0.4,4,0.7l6.5,1.4l0.2,1.9l-5.9,2.5
	c-1.4,0.6-2.7,1.1-3.9,1.5l0,0.1c1.4,0.1,2.7,0.3,4.1,0.5l6.3,1.1l0.2,2.2l-12.7-2.7l-0.2-2l5.7-2.5c1.3-0.6,2.6-1.1,3.9-1.5l0-0.1
	c-1.4-0.2-2.8-0.4-4.2-0.7l-6-1.4l-0.2-2l11.9-5L18.9,181z"/>
<path class="st0" d="M14.6,219.9c0.8-0.3,1.6,0.1,1.9,0.9c0,0,0,0.1,0,0.1c0.2,0.8-0.2,1.6-1,1.9c0,0-0.1,0-0.1,0
	c-0.8,0.3-1.7-0.1-1.9-0.9s0.1-1.7,0.9-1.9C14.5,220,14.6,219.9,14.6,219.9z"/>
<path class="st0" d="M33.7,253.8c-4.1,2-7.3,0.1-8.6-2.6c-1.5-3-0.5-6.4,3-8.1c3.7-1.8,7.1-0.5,8.6,2.5
	C38.3,248.8,37.1,252.1,33.7,253.8z M29.2,245.1c-2.4,1.2-3.5,3.5-2.6,5.5c1,1.9,3.5,2.5,6,1.2c1.9-0.9,3.8-3.1,2.6-5.4
	C34,244,31.3,244.1,29.2,245.1L29.2,245.1z"/>
<path class="st0" d="M43.4,276.3c0.1,1,0.5,2,1.1,2.9c1,1.3,2.1,1.4,2.9,0.8c0.8-0.7,0.9-1.5,0.4-3.2c-0.7-2.2-0.4-3.8,0.8-4.7
	c1.6-1.2,3.9-0.9,5.5,1.2c0.7,0.8,1.1,1.8,1.2,2.9l-1.6,0.5c-0.1-0.9-0.4-1.7-1-2.4c-0.5-0.9-1.6-1.2-2.5-0.7c0,0-0.1,0.1-0.1,0.1
	c-0.8,0.6-0.7,1.5-0.2,3.1c0.7,2.2,0.5,3.7-1,4.8c-1.7,1.3-4,0.9-5.7-1.4c-0.8-0.9-1.3-2.1-1.4-3.3L43.4,276.3z"/>
<path class="st0" d="M70.1,307.7c-1.2-0.4-2.2-1-3.1-1.8c-2.8-2.5-2.9-6-0.3-8.8c2.2-2.7,6.1-3.1,8.8-0.9c0.2,0.1,0.3,0.3,0.5,0.4
	c0.8,0.7,1.4,1.6,1.9,2.6l-1.5,0.9c-0.3-0.8-0.8-1.6-1.5-2.2c-2.1-1.9-4.6-1.4-6.4,0.5c-1.9,2.1-1.7,4.7,0.1,6.3
	c0.7,0.6,1.5,1.1,2.5,1.4L70.1,307.7z"/>
<path class="st0" d="M95.7,326.4l0.7-1.4l-0.1,0c-1.4,0.6-2.9,0.4-4.2-0.4c-1.7-0.9-2.4-3-1.5-4.7c0-0.1,0.1-0.2,0.1-0.3
	c1.5-2.6,4.7-2.6,8.7-0.1l0.1-0.2c0.9-1.1,0.7-2.7-0.4-3.6c-0.2-0.1-0.3-0.2-0.5-0.3c-1-0.6-2.1-0.9-3.2-0.9l0.3-1.5
	c1.4,0,2.8,0.4,4,1.2c3.2,2,2.7,4.6,1.4,6.8l-2.4,3.9c-0.5,0.8-1,1.7-1.4,2.6L95.7,326.4z M98.7,320.9c-2.1-1.3-4.7-2.4-5.9-0.3
	c-0.6,0.9-0.4,2.1,0.4,2.8c0.1,0.1,0.2,0.1,0.3,0.2c1.1,0.7,2.6,0.6,3.6-0.2c0.2-0.2,0.3-0.3,0.5-0.5L98.7,320.9z"/>
<path class="st0" d="M123.7,330.7c0.5-1.4,0.9-2.5,1.3-3.6l1.8,0.7l-0.8,2.3l0.1,0c1-1.3,2.6-1.8,4.2-1.3c0.2,0.1,0.4,0.2,0.6,0.3
	l-0.8,2c-0.2-0.1-0.4-0.3-0.7-0.3c-1.5-0.5-3.2,0.2-3.8,1.6c-0.2,0.3-0.3,0.6-0.5,0.9l-2.3,6.1l-2.1-0.8L123.7,330.7z"/>
<path class="st0" d="M156.4,340.8l-0.3,1.6l-6.2-1.2l0.3-1.6L156.4,340.8z"/>
<path class="st0" d="M179.7,342.6c0-1.5,0.1-2.7,0-3.9l2,0.1l0,2.4l0.1,0c0.5-1.5,1.9-2.6,3.5-2.6c0.2,0,0.4,0,0.6,0.1l-0.1,2.1
	c-0.2-0.1-0.5-0.1-0.8-0.1c-1.6,0-2.9,1.2-3.1,2.8c-0.1,0.3-0.1,0.7-0.1,1l-0.2,6.6l-2.2-0.1L179.7,342.6z"/>
<path class="st0" d="M220,342.1c0.7,4.5-2.1,7-5.1,7.4c-3.3,0.5-6.2-1.5-6.8-5.4c-0.6-4.1,1.7-6.9,5.1-7.4
	C216.6,336.2,219.4,338.3,220,342.1z M210.3,343.7c0.4,2.7,2.3,4.5,4.4,4.1c2.1-0.3,3.4-2.6,3-5.3c-0.3-2.1-1.8-4.5-4.4-4.1
	C210.7,338.8,209.9,341.4,210.3,343.7z"/>
<path class="st0" d="M249.1,321.1l5.2,14c0.4,1,0.8,2.2,1.2,3l-1.9,0.7l-0.8-2l0,0c-0.2,1.7-1.4,3.2-3.1,3.7c-2.8,1-5.8-0.5-7.1-4
	c-1.5-3.8,0-7.1,2.9-8.1c1.4-0.6,3-0.4,4.1,0.5l0,0l-2.6-6.9L249.1,321.1z M250.8,332c-0.1-0.3-0.2-0.6-0.4-0.8
	c-0.8-1.3-2.5-1.9-3.9-1.3c-2.2,0.8-2.8,3.2-1.8,5.8c0.9,2.3,2.7,3.8,5,3c1.5-0.6,2.4-2.1,2.1-3.7c0-0.3-0.1-0.6-0.2-0.9L250.8,332z
	"/>
<path class="st0" d="M274.4,319.2c-0.8-1.2-1.4-2.3-2.1-3.2l1.7-1l1.3,2l0.1-0.1c-0.4-1.5,0.2-3.2,1.5-4.1c0.2-0.1,0.4-0.2,0.6-0.3
	l1.1,1.8c-0.2,0.1-0.5,0.2-0.7,0.3c-1.3,0.9-1.8,2.6-1.1,4c0.1,0.3,0.3,0.6,0.5,0.9l3.4,5.6l-1.9,1.1L274.4,319.2z"/>
<path class="st0" d="M295.4,295.2c0.5,0.6,0.4,1.5-0.2,2c-0.6,0.5-1.4,0.4-1.9-0.2c-0.5-0.6-0.5-1.4,0.1-1.9c0,0,0,0,0.1,0
	C293.9,294.5,294.8,294.6,295.4,295.2C295.3,295.1,295.3,295.2,295.4,295.2z M303.7,308.8l-8-9.4l1.7-1.5l8,9.4L303.7,308.8z"/>
<path class="st0" d="M321.1,273c0.7,0.6,1.4,1.3,2.6,2.2l5.5,4.5c2.2,1.8,3.2,3.3,3.2,4.9c0,1.6-0.6,3.2-1.7,4.4
	c-0.9,1.1-2.1,2-3.4,2.5l-1-1.5c1.2-0.4,2.2-1.2,3-2.2c1.5-1.8,1.6-3.8-0.8-5.8l-1.1-0.9l0,0c0.5,1.5,0.2,3.2-0.9,4.3
	c-1.9,2.4-5.3,2.4-8,0.2c-3.2-2.7-3.3-6.3-1.5-8.5c0.9-1.3,2.5-1.9,4.1-1.6l0,0l-1.4-1.3L321.1,273z M323.4,277.9
	c-0.3-0.2-0.6-0.4-0.9-0.5c-1.3-0.6-2.9-0.2-3.8,0.9c-1.4,1.7-0.9,4,1.3,5.8c1.9,1.5,4.2,1.9,5.7,0c0.9-1.1,1-2.7,0.2-3.9
	c-0.2-0.3-0.5-0.6-0.8-0.9L323.4,277.9z"/>
<path class="st0" d="M346.9,248.3c1.1,0.6,2.1,1.1,3,1.5l-0.9,1.8l-1.8-0.8l0,0c0.9,1.4,0.9,3.2,0.1,4.7c-0.9,1.7-2.9,3.3-6.8,1.3
	l-6.4-3.4l1-2l6,3.2c2.1,1.1,3.8,1.2,4.8-0.6c0.8-1.5,0.2-3.5-1.3-4.3c0,0,0,0,0,0l-6.7-3.5l1-2L346.9,248.3z"/>
<path class="st0" d="M354.5,222.7c2.9,0.8,4.7-0.7,5.3-2.9c0.4-1.1,0.5-2.3,0.3-3.5l1.6,0.1c0.2,1.4,0,2.8-0.4,4.2
	c-1.1,3.6-4.1,5.1-7.7,4.1s-5.8-4-4.8-7.4c1.1-3.9,4.8-3.9,7-3.3c0.3,0.1,0.7,0.2,1,0.4L354.5,222.7z M354.8,216
	c-1.4-0.4-3.7-0.5-4.4,2c-0.6,2.2,1.1,3.7,2.5,4.3L354.8,216z"/>
<path class="st0" d="M365.6,192.5l-6.7-6.2c-0.6-0.6-1.1-1.2-1.8-1.8l-0.1,0l-0.6,6.7l-1.8-0.2l0.9-9.4l1.4,0.2l6.6,6.2
	c0.6,0.6,1.2,1.1,1.8,1.8l0.1,0l0.7-7.2l1.8,0.2l-0.9,10L365.6,192.5z"/>
<path class="st0" d="M366.5,158.8c-0.8,0.1-1.6-0.5-1.7-1.3c0,0,0-0.1,0-0.1c0-0.9,0.7-1.6,1.6-1.6c0.8,0,1.5,0.6,1.6,1.4
	c0.1,0.8-0.6,1.5-1.4,1.6C366.6,158.8,366.5,158.8,366.5,158.8z"/>
<path class="st0" d="M361.4,122.6c0.7,1,1.3,2.1,1.5,3.3c0.9,3.6-1,6.6-4.7,7.5c-3.3,1-6.8-0.9-7.8-4.2c-0.1-0.2-0.1-0.4-0.2-0.6
	c-0.3-1-0.3-2.1-0.1-3.2l1.8,0.1c-0.2,0.9-0.2,1.8,0,2.7c0.7,2.7,3.1,3.7,5.6,3.1c2.8-0.7,4-2.9,3.5-5.3c-0.2-0.9-0.6-1.8-1.2-2.5
	L361.4,122.6z"/>
<path class="st0" d="M337.1,106.4l-0.9-2l7-3.3l0,0c-0.8-0.1-1.5-0.3-2.1-0.8c-0.7-0.5-1.2-1.1-1.5-1.8c-0.7-1.5-0.9-4.3,3-6.1
	l6.7-3.1l0.9,2l-6.4,3c-1.8,0.8-3,2.2-2.1,4.1c0.6,1.2,1.9,2,3.3,1.8c0.4,0,0.7-0.1,1-0.3l6.8-3.1l0.9,2L337.1,106.4z"/>
</svg>
