<svg id="Capa_1" data-name="Capa 1" xmlns="http://www.w3.org/2000/svg" viewBox="0 0 374.56543 357.64469"><defs><style>.cls-1{fill:#80bce5;}.cls-2{fill:#bf1e16;}</style></defs><title>logoArtboard 3</title><path class="cls-1" d="M188.74726,324.9795c-83.6181,0-151.646-68.0279-151.646-151.6461,0-83.6204,68.0279-151.6437,151.646-151.6437s151.6459,68.0233,151.6459,151.6437C340.39316,256.9516,272.36546,324.9795,188.74726,324.9795Zm0-296.5883c-79.9233,0-144.9422,65.0212-144.9422,144.9422,0,79.9231,65.0189,144.94,144.9422,144.94,79.9231,0,144.942-65.0169,144.942-144.94C333.68926,93.4124,268.67036,28.3912,188.74726,28.3912Z"/><path class="cls-1" d="M215.65426,176.0956a25.58832,25.58832,0,1,0-26.2244,24.9634A25.58287,25.58287,0,0,0,215.65426,176.0956Zm-26.0151,16.5523a17.1951,17.1951,0,1,1,17.6098-16.7605A17.16075,17.16075,0,0,1,189.63916,192.6479Z"/><path class="cls-2" d="M249.33436,194.6426c-4.0187,3.1561-6.079,8.9476-6.1866,9.2374v.0158a20.4726,20.4726,0,0,0-.2128,7.5936c27.7483-13.0817,43.721-38.5274,43.721-38.5274-15.6637-25.2938-49.9642-38.414-49.9642-38.414l-.0225-.8965c-.0102,0-.0169-.0047-.0329-.0047l.0078-1.0073.0035-18.2506A22.53267,22.53267,0,0,0,214.519,93.4238l-70.8807-.0044-.0044.6181.0067,39.6207c-.0146.009-.0362.009-.0429.0158l-.0262.4166s-34.1361,13.4077-49.8838,38.7877c0,0,18.3695,29.109,49.9744,41.4231l-.0361.6248-.0216,26.7748-.0148,23.9874h10.9931l.0227-23.3559.0137-22.8984.0078-.0726v-.3712c.0079,0,.0079,0,.0216.0068l.0362-.6248s23.1964,8.0237,47.4896,4.6933l.8262,1.1817.0362.0658,15.9243,21.7326,12.9651,17.6934,11.9191.0047-11.7911-16.9421-17.1275-24.5851-.5831-.7947s13.0975-2.5992,17.0267-5.9409l.0102-.009c5.221-5.4248,5.2618-14.0733,5.2618-14.2795l.002-53.2549v-.5388l.0035-.6137c27.6282,12.6788,35.5049,25.9347,35.5049,25.9347C267.43076,180.5399,253.60206,191.3009,249.33436,194.6426Zm-23.6911-65.0483a.2265.2265,0,0,1-.077-.0204l-.0306.5977c-38.8362-11.9905-70.9009.1222-70.9009.1222V104.4136h59.6148a11.56352,11.56352,0,0,1,11.3937,9.9753Zm-116.9721,43.1482c9.2464-11.8477,21.2016-18.5019,34.9627-25.3166v53.7462A101.72555,101.72555,0,0,1,108.67116,172.7425Zm81.5001,39.2405a104.78085,104.78085,0,0,1-35.5444-6.1514l.0079-63.1013a105.93936,105.93936,0,0,1,71.0018.0067l.0067,63.1375A104.96293,104.96293,0,0,1,190.17126,211.983Z"/><polygon points="234.707 145.289 234.701 145.28 234.678 144.756 234.707 145.289"/><path class="cls-2" d="M31.8916,104.57829l-6.44433-.69141c-1.41407-.15332-2.72364-.29394-3.998-.53027l-.02637.07129c1.06934.70508,2.165,1.55468,3.26074,2.40527l5.17871,4.11231-.667,1.76367-6.44824-.39258c-1.5459-.09375-2.88769-.2207-4.15527-.40039l-.02735.07226a37.03717,37.03717,0,0,1,3.41016,2.29883l5.17383,3.83594-.78516,2.07519-10.13672-8.085.72266-1.9082,6.17578.31836a41.322,41.322,0,0,1,4.17969.4082l.01855-.04687a36.64854,36.64854,0,0,1-3.41894-2.49317l-4.78223-3.93457.72168-1.9082,12.85938.88281Z"/><path class="cls-2" d="M20.95508,142.03825l-6.43262.81543c-1.41113.17773-2.71973.34375-4.01367.4082l-.00977.07617c1.20411.4375,2.46778,1.0127,3.73047,1.58692l5.99121,2.80566-.24218,1.8711-6.36719,1.10742c-1.52539.2666-2.86133.4541-4.1377.57226l-.00976.07617a36.78677,36.78677,0,0,1,3.85058,1.44922l5.92285,2.53907-.28417,2.20117L7.21875,152.01969l.26074-2.02441,6.085-1.11816a41.00618,41.00618,0,0,1,4.16407-.56836l.00586-.05078a36.43912,36.43912,0,0,1-3.9043-1.63477L8.26563,143.8986l.26171-2.02441L21.249,139.7609Z"/><path class="cls-2" d="M18.918,181.00407l-6.07617,2.25879c-1.334.49414-2.57032.95312-3.81543,1.31054l.00781.07618c1.27148.15234,2.63184.4248,3.99316.69629L19.499,186.714l.19043,1.87793-5.94726,2.52637c-1.42578.60644-2.6836,1.09375-3.89844,1.499l.00781.07617a37.06038,37.06038,0,0,1,4.0791.53418l6.34473,1.124.22461,2.208L7.81543,193.8488l-.20605-2.03028,5.66992-2.47265a41.26274,41.26274,0,0,1,3.92383-1.502l-.00391-.05078a36.43975,36.43975,0,0,1-4.17383-.70312l-6.03711-1.38672-.207-2.03028,11.90527-4.95214Z"/><path class="cls-2" d="M14.62109,219.93669a1.50689,1.50689,0,0,1,1.97266,1.01367,1.48848,1.48848,0,0,1-1.11621,1.89746,1.51976,1.51976,0,1,1-.85645-2.91113Z"/><path class="cls-2" d="M33.7168,253.82243c-4.082,2.043-7.27735.10449-8.61328-2.56445-1.49414-2.98829-.457-6.38868,3.0332-8.13477,3.69531-1.84863,7.07226-.51563,8.60156,2.542C38.32422,248.8361,37.09375,252.133,33.7168,253.82243Zm-4.4961-8.70313c-2.418,1.21-3.54687,3.51465-2.56543,5.47657.959,1.916,3.4795,2.45117,5.9668,1.207,1.87012-.93555,3.77441-3.05762,2.58789-5.43067C34.02344,244.00016,31.31934,244.0695,29.2207,245.1193Z"/><path class="cls-2" d="M43.38281,276.256a5.886,5.886,0,0,0,1.09375,2.89063c.99414,1.29492,2.10742,1.40527,2.917.78418.84961-.65235.92676-1.51563.40333-3.2041-.72461-2.24122-.39063-3.81641.7832-4.71778,1.57812-1.21191,3.85156-.93066,5.4668,1.17383a6.15517,6.15517,0,0,1,1.24218,2.87305l-1.63672.54882a4.81592,4.81592,0,0,0-.97168-2.4375,1.80306,1.80306,0,0,0-2.59375-.61425c-.80957.62207-.72363,1.48828-.22949,3.13574.65625,2.19629.47461,3.71875-.98242,4.83789-1.71875,1.32031-3.959.917-5.74414-1.41016a7.02644,7.02644,0,0,1-1.44531-3.26464Z"/><path class="cls-2" d="M70.08008,307.66715a8.26445,8.26445,0,0,1-3.11133-1.8457c-2.76465-2.49512-2.87109-5.99316-.3418-8.7959a6.27181,6.27181,0,0,1,9.31446-.42285,7.4992,7.4992,0,0,1,1.88281,2.5586l-1.54.94531a5.20991,5.20991,0,0,0-1.53809-2.17871c-2.10254-1.89649-4.64062-1.36914-6.36621.543-1.91406,2.12109-1.72949,4.6582.08789,6.29882a6.38921,6.38921,0,0,0,2.45606,1.39161Z"/><path class="cls-2" d="M95.71582,326.44548l.6543-1.42188-.06543-.04a4.59884,4.59884,0,0,1-4.17969-.38769,3.51788,3.51788,0,0,1-1.38867-4.98926c1.54883-2.55078,4.66211-2.57031,8.72656-.0752l.13281-.21777a2.54443,2.54443,0,0,0-.917-3.89746,6.14424,6.14424,0,0,0-3.22363-.88184l.33105-1.52929a7.65426,7.65426,0,0,1,4.03614,1.166c3.22656,1.958,2.67578,4.63672,1.39257,6.751l-2.39453,3.94726A17.386,17.386,0,0,0,97.46,327.50407Zm2.9834-5.55762c-2.06641-1.31348-4.668-2.38477-5.91113-.335a1.98605,1.98605,0,0,0,.69824,2.92968,3.072,3.072,0,0,0,3.62305-.21875,2.35593,2.35593,0,0,0,.47949-.54394Z"/><path class="cls-2" d="M123.68848,330.69548c.51855-1.35938.94043-2.53614,1.27832-3.63575l1.835.7002-.792,2.292.09472.03613a3.70374,3.70374,0,0,1,4.15821-1.30761,2.40553,2.40553,0,0,1,.56835.29882l-.75488,1.97754a3.43724,3.43724,0,0,0-.6875-.34375,3.1477,3.1477,0,0,0-3.83984,1.62012,6.29324,6.29324,0,0,0-.46875.94043l-2.3457,6.14941-2.07422-.791Z"/><path class="cls-2" d="M156.35352,340.82731l-.32325,1.626-6.17675-1.22852.32226-1.626Z"/><path class="cls-2" d="M179.72656,342.63786c.043-1.4541.05469-2.7041.0127-3.85352l1.96387.0586.0039,2.4248.10156.00293a3.70523,3.70523,0,0,1,3.498-2.60059,2.40967,2.40967,0,0,1,.63477.09571l-.06348,2.11621a3.41173,3.41173,0,0,0-.7627-.09961,3.15031,3.15031,0,0,0-3.09472,2.791,6.415,6.415,0,0,0-.13379,1.043l-.19629,6.57813-2.21777-.06641Z"/><path class="cls-2" d="M219.95313,342.06559c.69042,4.5127-2.13379,6.957-5.083,7.40918-3.30274.50488-6.21875-1.52441-6.80957-5.38183-.625-4.083,1.67968-6.88672,5.05761-7.4043C216.62207,336.15153,219.38184,338.33512,219.95313,342.06559ZM210.292,343.674c.41016,2.67188,2.25586,4.45313,4.42383,4.12109,2.11719-.32421,3.40039-2.55859,2.97949-5.30664-.3164-2.0664-1.751-4.53027-4.373-4.1289C210.70117,338.76188,209.9375,341.35465,210.292,343.674Z"/><path class="cls-2" d="M249.10938,321.11833l5.21386,13.97851c.38281,1.02735.84278,2.18946,1.209,2.95117l-1.8877.70411-.84375-1.97168-.04785.01757a4.56741,4.56741,0,0,1-3.09668,3.74122c-2.7959,1.042-5.82812-.52149-7.13867-4.03418-1.458-3.8379.04883-7.09473,2.86914-8.14649a4.12541,4.12541,0,0,1,4.14746.46777l.04785-.01855-2.57519-6.90527Zm1.667,10.8916a3.9873,3.9873,0,0,0-.42481-.84863,3.303,3.303,0,0,0-3.94433-1.30567c-2.17383.81152-2.752,3.2041-1.79785,5.76074.873,2.3418,2.74218,3.84961,5.01171,3.00293a3.37214,3.37214,0,0,0,2.14649-3.6582,3.935,3.935,0,0,0-.24219-.94434Z"/><path class="cls-2" d="M274.415,319.20329c-.75195-1.24414-1.4209-2.29981-2.08008-3.24219l1.68067-1.0166,1.31933,2.0332.08692-.05273a3.70273,3.70273,0,0,1,1.52441-4.08106,2.42838,2.42838,0,0,1,.58594-.26465l1.09472,1.81153a3.3243,3.3243,0,0,0-.69336.33008,3.14776,3.14776,0,0,0-1.084,4.02343,6.34008,6.34008,0,0,0,.4541.94727l3.40527,5.62891-1.89843,1.14843Z"/><path class="cls-2" d="M295.36133,295.18864a1.38966,1.38966,0,0,1-2.11524,1.80273,1.36671,1.36671,0,0,1,.15821-1.97656A1.33117,1.33117,0,0,1,295.36133,295.18864Zm8.35351,13.65527-8.00586-9.39453,1.708-1.45508,8.00586,9.39356Z"/><path class="cls-2" d="M321.11328,273.02262c.65723.60547,1.39453,1.27539,2.55762,2.2295L329.21,279.797c2.18848,1.7959,3.17285,3.3291,3.24121,4.93554a6.54189,6.54189,0,0,1-1.70312,4.40723,7.975,7.975,0,0,1-3.39258,2.52734l-.96484-1.51757a6.96085,6.96085,0,0,0,3.04492-2.18457c1.45605-1.77442,1.59668-3.83594-.80762-5.8086l-1.06543-.874-.03223.04a4.40365,4.40365,0,0,1-.89355,4.3457c-1.94141,2.36621-5.34277,2.41113-7.98438.24414-3.23339-2.65234-3.33593-6.2666-1.541-8.4541A4.10414,4.10414,0,0,1,321.21,275.84l.03223-.04-1.374-1.25977Zm2.293,4.88282a3.18307,3.18307,0,0,0-.86914-.54786,3.23152,3.23152,0,0,0-3.82227.9209c-1.35937,1.65528-.92968,3.98731,1.27832,5.79785,1.87305,1.53711,4.20606,1.86817,5.74317-.0039a3.28163,3.28163,0,0,0,.19922-3.86133,3.92084,3.92084,0,0,0-.81348-.89844Z"/><path class="cls-2" d="M346.92773,248.32633c1.12891.59375,2.13379,1.09375,3.02637,1.47657l-.92578,1.76074-1.8418-.8252-.02441.04493a4.64219,4.64219,0,0,1,.13184,4.67968c-.90235,1.71485-2.92969,3.26953-6.76661,1.252l-6.38671-3.35938,1.04492-1.98633,6.04785,3.18164c2.07617,1.0918,3.80762,1.19629,4.75781-.60937a3.15686,3.15686,0,0,0-1.34961-4.28223l-6.70215-3.52539,1.04493-1.98633Z"/><path class="cls-2" d="M354.50391,222.73063c2.92675.80274,4.66992-.707,5.2998-2.86035a8.11024,8.11024,0,0,0,.34668-3.459l1.64941.084a9.99613,9.99613,0,0,1-.418,4.15527c-1.06641,3.64649-4.10157,5.124-7.67481,4.0791s-5.77246-3.97265-4.76367-7.42382c1.13086-3.86719,4.833-3.90039,7.01172-3.26368a8.44808,8.44808,0,0,1,.98144.36719Zm.30468-6.76562c-1.36425-.42481-3.665-.46-4.373,1.96289-.6377,2.17871,1.09082,3.71972,2.5332,4.32715Z"/><path class="cls-2" d="M365.61719,192.45524l-6.71192-6.24316c-.60937-.59571-1.1455-1.15821-1.75293-1.7793l-.05078-.00488-.62793,6.65234-1.80273-.16992.88379-9.36914,1.39453.15722,6.61719,6.15723c.63769.57227,1.19922,1.1377,1.78125,1.75586l.05078.00488.67773-7.18554,1.77735.168-.94141,9.97851Z"/><path class="cls-2" d="M366.50586,158.80192a1.50828,1.50828,0,0,1-1.71094-1.41309,1.60935,1.60935,0,0,1,3.207-.20117A1.50282,1.50282,0,0,1,366.50586,158.80192Z"/><path class="cls-2" d="M361.40332,122.56462a8.2637,8.2637,0,0,1,1.53516,3.27246c.88476,3.61621-.99219,6.56836-4.65723,7.46484a6.27033,6.27033,0,0,1-7.93945-4.88184,7.50066,7.50066,0,0,1-.12012-3.17285l1.80566.083a5.20177,5.20177,0,0,0,.04786,2.666c.67285,2.748,3.0664,3.73828,5.56835,3.126,2.77344-.67871,4.0459-2.87988,3.46485-5.25683a6.38677,6.38677,0,0,0-1.249-2.5293Z"/><path class="cls-2" d="M337.13184,106.40251l-.94825-2.03321,6.98145-3.2539-.02149-.04688a4.16528,4.16528,0,0,1-2.1123-.78711,4.615,4.615,0,0,1-1.54687-1.8125c-.7002-1.50195-.89649-4.33691,2.96386-6.13672l6.65821-3.10156.94824,2.03418-6.42676,2.99512c-1.80371.83984-3.0166,2.2207-2.12207,4.13965a3.22531,3.22531,0,0,0,3.30469,1.78027,2.71255,2.71255,0,0,0,1.03613-.31445l6.75-3.14453.94824,2.0332Z"/></svg>